<svg height="512" viewBox="0 0 64 64" width="512" xmlns="http://www.w3.org/2000/svg"><g id="Filled_outline" data-name="Filled outline"><path d="m6 13h52v38h-52z" fill="#d3843d"/><circle cx="40" cy="33" fill="#301a12" r="12"/><path d="m40 45a11.958 11.958 0 0 0 8.95-4.026 12.258 12.258 0 0 0 -.95-3.974l-1-8-5 4h-4l-5-4-1 8a12.258 12.258 0 0 0 -.95 3.974 11.958 11.958 0 0 0 8.95 4.026z" fill="#f4f4e6"/><path d="m42 42c0 1.1-.9 3-2 3s-2-1.9-2-3 .9-1 2-1 2-.1 2 1z" fill="#394d5c"/><path d="m3 7h58v6h-58z" fill="#66342e"/><path d="m3 51h58v6h-58z" fill="#66342e"/><circle cx="17" cy="30" fill="#fcf05a" r="5"/><path d="m40 46a13 13 0 1 0 -13-13 13.015 13.015 0 0 0 13 13zm0-2c-.321-.044-.994-1.164-1-1.983a7.092 7.092 0 0 1 .728-.017h.544a7.1 7.1 0 0 1 .728.018c-.009.818-.682 1.938-1 1.982zm2.639-.334a4.705 4.705 0 0 0 .361-1.666 1.926 1.926 0 0 0 -.531-1.425 2.9 2.9 0 0 0 -2.213-.575h-.512a2.881 2.881 0 0 0 -2.213.576 1.926 1.926 0 0 0 -.531 1.424 4.705 4.705 0 0 0 .358 1.666 10.992 10.992 0 0 1 -5.264-3.036 10.3 10.3 0 0 1 .78-3.143.994.994 0 0 0 .118-.363l.011-.09a3 3 0 0 0 5.997-.034h-2a1 1 0 0 1 -2 0h-1.992l.763-6.1 3.6 2.884a1 1 0 0 0 .629.216h4a1 1 0 0 0 .625-.219l3.6-2.884.763 6.1h-1.988a1 1 0 0 1 -2 0h-2a3 3 0 0 0 6 .034l.011.09a.994.994 0 0 0 .118.363 10.3 10.3 0 0 1 .78 3.143 10.992 10.992 0 0 1 -5.267 3.039zm-13.639-10.666a11 11 0 1 1 20.552 5.434 8.353 8.353 0 0 0 -.582-1.734l-.978-7.821a1 1 0 0 0 -1.617-.657l-4.726 3.778h-3.3l-4.726-3.781a1 1 0 0 0 -1.617.657l-.976 7.824a8.353 8.353 0 0 0 -.582 1.737 10.918 10.918 0 0 1 -1.448-5.437z"/><path d="m61 6h-58a1 1 0 0 0 -1 1v6a1 1 0 0 0 1 1h2v36h-2a1 1 0 0 0 -1 1v6a1 1 0 0 0 1 1h58a1 1 0 0 0 1-1v-6a1 1 0 0 0 -1-1h-2v-36h2a1 1 0 0 0 1-1v-6a1 1 0 0 0 -1-1zm-1 46v4h-56v-4zm-44-27.91a6 6 0 1 0 2 0v-10.09h39v36h-50v-36h9zm1 1.91a4 4 0 1 1 -4 4 4 4 0 0 1 4-4zm43-14h-56v-4h56z"/><path d="m10 48h5v-2h-4v-7h-2v8a1 1 0 0 0 1 1z"/><path d="m17 46h2v2h-2z"/><path d="m21 46h2v2h-2z"/><path d="m53 16h2v2h-2z"/><path d="m49 16h2v2h-2z"/></g></svg>