<?xml version="1.0" encoding="iso-8859-1"?>
<!-- Generator: Adobe Illustrator 19.0.0, SVG Export Plug-In . SVG Version: 6.00 Build 0)  -->
<svg version="1.1" id="Layer_1" xmlns="http://www.w3.org/2000/svg" xmlns:xlink="http://www.w3.org/1999/xlink" x="0px" y="0px"
	 viewBox="0 0 512.002 512.002" style="enable-background:new 0 0 512.002 512.002;" xml:space="preserve">
<path style="fill:#ECB45C;" d="M60.395,171.423c0,0-76.436-133.763-57.328-152.873c19.11-19.109,152.874,57.328,152.874,57.328"/>
<path style="fill:#E9A440;" d="M358.041,71.839c0,0,130.599-81.722,150.457-63.391c19.858,18.328-51.172,155.042-51.172,155.042"/>
<circle style="fill:#EFC27B;" cx="261.043" cy="276.527" r="229.707"/>
<path style="fill:#ECB45C;" d="M261.041,46.818v459.415c126.865,0,229.707-102.843,229.707-229.707S387.906,46.818,261.041,46.818z"
	/>
<path style="fill:#58575D;" d="M186.723,215.72c-7.218,0-14.004-2.811-19.109-7.914c-5.104-5.105-7.915-11.891-7.915-19.11
	c0.005-14.904,12.129-27.024,27.026-27.024c14.901,0,27.024,12.123,27.024,27.024c0,14.901-12.12,27.023-27.02,27.026l0,0
	C186.727,215.72,186.724,215.72,186.723,215.72z"/>
<path style="fill:#454449;" d="M335.358,215.72h-0.003c-14.9,0-27.022-12.123-27.022-27.024
	c0.005-14.904,12.129-27.024,27.024-27.024c14.901,0,27.024,12.123,27.024,27.024C362.383,203.597,350.26,215.72,335.358,215.72z"/>
<path style="fill:#A58868;" d="M287.729,377.286c-3.265-1.163-5.601-3.54-6.42-4.793v-95.969h-40.537v95.969
	c-0.819,1.253-3.155,3.629-6.421,4.793l-47.049,15.057l12.356,38.607l47.293-15.134l0.389-0.128
	c4.956-1.697,9.571-4.086,13.701-6.987c4.131,2.902,8.745,5.29,13.701,6.987l47.682,15.262l12.356-38.607L287.729,377.286z"/>
<g>
	<rect x="328.604" y="256.258" style="fill:#947859;" width="108.098" height="40.537"/>
	
		<rect x="326.434" y="323.82" transform="matrix(-0.9487 -0.3162 0.3162 -0.9487 610.593 787.2529)" style="fill:#947859;" width="85.465" height="40.537"/>
</g>
<g>
	<rect x="85.384" y="256.258" style="fill:#A58868;" width="108.098" height="40.537"/>
	
		<rect x="132.649" y="301.347" transform="matrix(-0.3162 -0.9487 0.9487 -0.3162 -125.1568 597.9489)" style="fill:#A58868;" width="40.537" height="85.465"/>
</g>
<path style="fill:#947859;" d="M287.729,377.286c-3.265-1.163-5.601-3.54-6.42-4.793v-95.969h-20.268v132.175
	c4.131,2.902,8.745,5.29,13.701,6.987l47.682,15.262l12.356-38.607L287.729,377.286z"/>
<path style="fill:#58575D;" d="M304.28,256.257c-7.102,21.552-26.133,45.31-43.239,45.673
	c-17.106-0.363-36.137-24.122-43.239-45.673c-3.279-11.011,5.198-20.124,18.917-20.268c16.215,0,32.429,0,48.644,0
	C299.082,236.133,307.56,245.245,304.28,256.257z"/>
<path style="fill:#454449;" d="M285.363,235.989c-8.107,0-16.215,0-24.322,0v65.941c17.106-0.363,36.137-24.122,43.239-45.673
	C307.56,245.245,299.082,236.133,285.363,235.989z"/>
<g>
</g>
<g>
</g>
<g>
</g>
<g>
</g>
<g>
</g>
<g>
</g>
<g>
</g>
<g>
</g>
<g>
</g>
<g>
</g>
<g>
</g>
<g>
</g>
<g>
</g>
<g>
</g>
<g>
</g>
</svg>
