<svg id="Capa_1" enable-background="new 0 0 512.009 512.009" height="512" viewBox="0 0 512.009 512.009" width="512" xmlns="http://www.w3.org/2000/svg"><g><g><path d="m502 333.009-54 151h-72c0-16.57-13.43-30-30-30h-180c-16.57 0-30 13.43-30 30h-72l-54-151z" fill="#99ebfa"/><path d="m493.21 36.799c-11.71-11.72-30.71-11.72-42.42 0l-96.87 97.05c-23.43-23.44-61.42-23.44-84.85 0l-82.71 82.7 157.64 96.47 52.35-51.9c23.43-23.43 23.43-61.42 0-84.85l96.86-97.05c11.72-11.71 11.72-30.71 0-42.42z" fill="#eefaff"/><path d="m220.52 247.929c7.085-3.635 15.268-5.448 24.1-4.78 12.28.98 23.18 6.89 30.7 15.75 10.69-9.86 24.98-15.89 40.68-15.89 26.202 0 48.445 16.791 56.63 40.13 9.555-6.393 20.996-10.13 33.37-10.13 33.14 0 60 26.86 60 60h-417.44c-1.66-4.69-2.56-9.74-2.56-15 0-24.85 20.15-45 45-45 5.28 0 10.35.91 15.05 2.58-1.231-35.298 26.685-62.58 59.95-62.58 23.773 0 44.846 13.924 54.52 34.92z" fill="#ffda8f"/></g><g><path d="m500.285 29.731c-15.625-15.638-40.936-15.646-56.571.003l-90.297 90.463c-27.125-20.375-66.241-18.607-91.416 6.58l-78.465 78.456c-5.705-1.472-11.578-2.224-17.535-2.224-35.305 0-64.588 26.269-69.329 60.289-1.876-.192-3.768-.289-5.671-.289-30.327 0-55 24.673-55 55 0 1.677.081 3.344.23 5h-26.231c-3.253 0-6.302 1.582-8.176 4.241-1.873 2.659-2.336 6.063-1.24 9.126l54 151c1.423 3.978 5.191 6.633 9.416 6.633h72c5.522 0 10-4.477 10-10 0-11.028 8.972-20 20-20h45.001c5.522 0 10-4.477 10-10s-4.478-10-10-10h-45.001c-18.604 0-34.283 12.767-38.734 30h-56.222l-46.848-131h463.607l-46.848 131h-56.222c-4.451-17.233-20.13-30-38.734-30h-44.999c-5.522 0-10 4.477-10 10s4.478 10 10 10h45c11.028 0 20 8.972 20 20 0 5.523 4.478 10 10 10h72c4.225 0 7.993-2.655 9.416-6.633l54-151c1.096-3.063.633-6.467-1.24-9.126-1.874-2.659-4.923-4.241-8.176-4.241h-26.726c-4.772-33.207-32.932-58.943-67.2-59.947 20.708-25.179 20.906-61.021 1.914-86.302l90.29-90.466c15.631-15.619 15.649-40.934.007-56.563zm-45.291 293.278h-398.634c-.234-1.646-.36-3.315-.36-5 0-19.299 15.701-35 35-35 4.023 0 7.961.674 11.702 2.003 6.627 2.354 13.59-2.705 13.342-9.775-1.05-29.551 22.374-52.228 49.956-52.228 27.881 0 50 22.67 50 50 0 5.523 4.478 10 10 10s10-4.477 10-10c0-6.56-.899-12.965-2.658-19.146 3.384-.752 6.895-1.017 10.482-.746 9.319.744 17.797 5.095 23.872 12.253 3.678 4.333 10.226 4.732 14.404.879 9.256-8.539 21.295-13.241 33.899-13.241 21.813 0 40.394 14.05 47.193 33.439 2.161 6.16 9.567 8.636 14.996 5.002 8.413-5.625 18.085-8.442 27.811-8.442 24.148.002 44.349 17.207 48.995 40.002zm31.138-250.854-96.86 97.05c-3.898 3.906-3.896 10.232.007 14.135 19.539 19.538 19.544 51.165-.002 70.709l-13.154 13.161c-6.991-11.684-17.281-21.126-29.472-27.099l14.341-14.341c3.905-3.905 3.905-10.237 0-14.143-3.906-3.905-10.236-3.905-14.143 0l-21.966 21.966c-2.944-.373-5.913-.584-8.883-.584-14.429 0-28.33 4.404-40.005 12.546-3.693-3.059-7.746-5.595-12.066-7.573l54.642-54.643c3.905-3.905 3.905-10.237 0-14.142-3.906-3.905-10.236-3.905-14.143 0l-63.822 63.823c-5.292.038-10.563.836-15.603 2.362-5.571-8.697-13.03-16.088-21.739-21.596l72.877-72.869c19.539-19.546 51.163-19.549 70.705 0 3.907 3.91 10.245 3.906 14.149-.005l96.867-97.046c7.709-7.715 20.366-7.912 28.277.006 7.762 7.754 7.877 20.405-.007 28.283z"/><circle cx="256.001" cy="454.009" r="10"/></g></g></svg>