<svg id="Capa_1" enable-background="new 0 0 512 512" height="512" viewBox="0 0 512 512" width="512" xmlns="http://www.w3.org/2000/svg"><g><g><g><path d="m360.918 67.361c-7.844 0-14.203-6.359-14.203-14.203v-6.589h-52.098c-7.844 0-14.203-6.359-14.203-14.203s6.359-14.203 14.203-14.203h66.301c7.844 0 14.203 6.359 14.203 14.203v20.792c0 7.843-6.359 14.203-14.203 14.203z" fill="#c5d3dd"/></g></g><g><g><path d="m375.123 32.365v20.797c0 7.837-6.365 14.203-14.203 14.203-3.213 0-6.156-1.064-8.534-2.855 3.431-2.596 5.659-6.714 5.659-11.348v-20.797c0-7.847-6.355-14.203-14.203-14.203h17.077c7.839 0 14.204 6.356 14.204 14.203z" fill="#b6c4cf"/></g></g><g><path d="m283.303 56.336h-47.313c-4.13 0-7.479-3.348-7.479-7.479v-33.891c0-4.13 3.348-7.479 7.479-7.479h47.313c4.13 0 7.479 3.348 7.479 7.479v33.891c0 4.131-3.348 7.479-7.479 7.479z" fill="#9facba"/></g><g><path d="m290.781 14.93v33.965c0 4.108-3.332 7.44-7.44 7.44h-20.896c4.108 0 7.43-3.332 7.43-7.44v-33.965c0-4.108-3.322-7.44-7.43-7.44h20.896c4.108 0 7.44 3.332 7.44 7.44z" fill="#8d9ca8"/></g><g><path d="m244.091 56.336h31.112v43.637h-31.112z" fill="#c5d3dd"/></g><g><path d="m259.647 56.336h15.556v43.637h-15.556z" fill="#b6c4cf"/></g><g><path d="m310.69 130.719h-102.086v-19.52c0-6.2 5.026-11.226 11.226-11.226h79.635c6.2 0 11.226 5.026 11.226 11.226v19.52z" fill="#9facba"/></g><g><path d="m310.693 111.137v19.584h-21.254v-19.584c0-6.166-4.993-11.159-11.159-11.159h21.245c6.165 0 11.168 4.993 11.168 11.159z" fill="#8d9ca8"/></g><g><path d="m342.305 504.512h-165.316c-10.85 0-19.646-8.796-19.646-19.646v-303.831c0-27.788 22.527-50.315 50.315-50.315h103.977c27.788 0 50.315 22.527 50.315 50.315v303.831c.001 10.85-8.795 19.646-19.645 19.646z" fill="#91deb6"/></g><g><path d="m361.955 180.759v304.217c0 10.791-8.753 19.534-19.544 19.534h-19.892c10.791 0 19.544-8.742 19.544-19.534v-304.217c0-27.63-22.408-50.038-50.048-50.038h19.892c27.639 0 50.048 22.408 50.048 50.038z" fill="#6ed5a1"/></g><g><circle cx="431.903" cy="120.539" fill="#a6e7f0" r="35.319"/></g><g><circle cx="80.097" cy="182.752" fill="#a6e7f0" r="35.319"/></g><g><circle cx="115.416" cy="60.123" fill="#a6e7f0" r="52.636"/></g><g><path d="m467.223 120.536c0 19.514-15.814 35.318-35.318 35.318-11.557 0-21.821-5.55-28.266-14.133 3.063.865 6.296 1.333 9.638 1.333 19.504 0 35.318-15.814 35.318-35.318 0-7.947-2.626-15.277-7.062-21.185 14.829 4.187 25.69 17.823 25.69 33.985z" fill="#6bd9e7"/></g><g><path d="m115.414 182.748c0 19.514-15.814 35.318-35.318 35.318-11.557 0-21.821-5.55-28.266-14.133 3.063.865 6.296 1.333 9.638 1.333 19.504 0 35.318-15.814 35.318-35.318 0-7.947-2.626-15.277-7.072-21.185 14.829 4.177 25.7 17.813 25.7 33.985z" fill="#6bd9e7"/></g><g><path d="m168.048 60.124c0 29.072-23.562 52.634-52.634 52.634-15.158 0-28.813-6.405-38.421-16.659 6.107 2.486 12.79 3.849 19.792 3.849 29.072 0 52.644-23.562 52.644-52.634 0-13.904-5.401-26.556-14.213-35.965 19.256 7.818 32.832 26.705 32.832 48.775z" fill="#6bd9e7"/></g><g><g><path d="m316.579 306.461c.64-12.429.929-24.877.86-37.323-.051-9.237-11.452-13.547-17.559-6.617-5.651 6.413-11.449 12.969-16.623 18.917-8.292-2.912-16.843-4.333-24.355-3.83-7.019-.278-14.898 1.146-22.59 3.885-5.186-5.963-11.002-12.539-16.67-18.972-6.107-6.93-17.508-2.62-17.559 6.617-.068 12.444.22 24.891.86 37.319-9.088 14.906-10.251 35.952.103 49.832 8.858 11.875 23.841 16.489 37.612 18.522 12.978 1.917 26.204 1.737 39.126-.533 13.711-2.408 28.563-7.428 37.095-19.54 9.631-13.668 8.343-33.721-.3-48.277z" fill="#f9f3f1"/></g><g><path d="m316.88 354.735c-8.527 12.113-23.379 17.136-37.093 19.548-10.029 1.756-20.239 2.266-30.368 1.502 4.077-.291 8.136-.792 12.167-1.502 13.714-2.412 28.566-7.435 37.093-19.548 9.628-13.669 8.345-33.717-.3-48.278.637-12.422.928-24.871.865-37.321-.009-1.729-.419-3.285-1.11-4.623.582-.664 1.165-1.329 1.747-1.993 6.106-6.926 17.509-2.621 17.564 6.616.064 12.449-.228 24.899-.865 37.321 8.645 14.561 9.928 34.609.3 48.278z" fill="#f3eae6"/></g><g><path d="m431.904 77.732c-23.604 0-42.807 19.203-42.807 42.807s19.203 42.806 42.807 42.806c23.603 0 42.806-19.203 42.806-42.806-.001-23.603-19.203-42.807-42.806-42.807zm0 70.638c-15.346 0-27.831-12.485-27.831-27.831s12.485-27.831 27.831-27.831 27.83 12.485 27.83 27.831-12.484 27.831-27.83 27.831z"/><path d="m435.697 107.568c-3.604 2.027-4.884 6.592-2.857 10.197 1.136 2.02 1.384 4.64.646 6.839-1.314 3.921.798 8.165 4.719 9.479.79.265 1.592.391 2.382.391 3.13 0 6.049-1.978 7.099-5.109 2.072-6.179 1.402-13.26-1.792-18.939-2.027-3.606-6.592-4.884-10.197-2.858z"/><path d="m80.097 139.945c-23.604 0-42.807 19.203-42.807 42.807 0 23.603 19.203 42.806 42.807 42.806s42.807-19.203 42.807-42.806c0-23.604-19.203-42.807-42.807-42.807zm0 70.638c-15.346 0-27.831-12.485-27.831-27.831 0-15.347 12.485-27.832 27.831-27.832s27.831 12.485 27.831 27.832c.001 15.346-12.485 27.831-27.831 27.831z"/><path d="m83.891 169.78c-3.604 2.027-4.884 6.592-2.857 10.197 1.136 2.021 1.384 4.64.646 6.836-1.315 3.921.797 8.166 4.717 9.481.79.265 1.593.391 2.383.391 3.13 0 6.048-1.977 7.098-5.107 2.074-6.179 1.404-13.26-1.791-18.94-2.026-3.605-6.592-4.884-10.196-2.858z"/><path d="m115.416 120.246c33.152 0 60.123-26.971 60.123-60.123.001-33.152-26.971-60.123-60.123-60.123-5.908 0-11.747.856-17.355 2.545-3.96 1.192-6.204 5.369-5.011 9.329 1.192 3.959 5.366 6.202 9.328 5.011 4.207-1.267 8.593-1.909 13.038-1.909 24.895 0 45.148 20.253 45.148 45.147 0 24.895-20.253 45.148-45.148 45.148s-45.148-20.253-45.148-45.148c0-9.639 2.994-18.835 8.659-26.592 2.438-3.34 1.707-8.024-1.632-10.463-3.339-2.438-8.025-1.708-10.463 1.632-7.548 10.339-11.539 22.588-11.539 35.423-.001 33.152 26.971 60.123 60.123 60.123z"/><path d="m131.716 76.374c.79.265 1.592.39 2.382.39 3.13 0 6.048-1.978 7.098-5.109 3.074-9.164 2.081-19.665-2.655-28.09-2.027-3.604-6.59-4.885-10.196-2.858-3.605 2.026-4.885 6.591-2.859 10.196 2.696 4.795 3.261 10.773 1.512 15.99-1.315 3.921.797 8.166 4.718 9.481z"/><path d="m360.917 10.675h-63.279c-1.845-6.166-7.564-10.675-14.323-10.675h-47.337c-8.245 0-14.954 6.708-14.954 14.954v33.916c0 8.246 6.709 14.955 14.954 14.955h.625v28.661h-16.792c-10.309 0-18.696 8.387-18.696 18.696v12.421c-28.797 3.223-51.261 27.707-51.261 57.35v303.946c0 14.944 12.158 27.102 27.102 27.102h165.379c14.944 0 27.102-12.158 27.102-27.102v-85.747c0-4.135-3.352-7.488-7.488-7.488s-7.488 3.352-7.488 7.488v85.747c0 6.686-5.44 12.126-12.127 12.126h-165.377c-6.686 0-12.127-5.44-12.127-12.126v-303.947c0-23.57 19.176-42.746 42.745-42.746h104.142c23.57 0 42.745 19.176 42.745 42.746v183.681c0 4.135 3.352 7.488 7.488 7.488s7.488-3.353 7.488-7.488v-183.681c0-29.643-22.464-54.127-51.261-57.35v-12.421c0-10.309-8.387-18.696-18.695-18.696h-16.792v-28.661h.624c6.42 0 11.893-4.075 14.008-9.768h41.922c.472 11.546 10.012 20.792 21.672 20.792 11.961 0 21.691-9.73 21.691-21.691v-20.791c.001-11.96-9.729-21.691-21.69-21.691zm-61.434 96.786c2.051 0 3.719 1.669 3.719 3.72v12.051h-87.111v-12.051c0-2.051 1.669-3.72 3.72-3.72zm-47.904-14.976v-28.661h16.137v28.661zm-15.579-43.615-.021-33.894 47.316-.021.027 33.894zm131.633 4.287c0 3.703-3.013 6.715-6.716 6.715s-6.715-3.012-6.715-6.715v-6.589c0-4.135-3.352-7.488-7.488-7.488h-48.444v-13.43h62.647c3.703 0 6.716 3.012 6.716 6.715z"/><path d="m197.045 360.767c8.56 11.474 22.468 18.491 42.52 21.452 6.317.933 12.667 1.399 19.015 1.399 7.525 0 15.046-.655 22.499-1.964 19.965-3.506 33.678-10.9 41.921-22.602 10.309-14.634 10.698-36.685 1.164-54.385.57-11.832.827-23.786.762-35.569-.041-7.355-4.512-13.773-11.392-16.351-6.858-2.57-14.424-.677-19.272 4.824l-3.134 3.554c-3.432 3.892-6.95 7.882-10.287 11.693-7.672-2.18-15.198-3.113-22.042-2.707-6.254-.195-13.11.745-20.084 2.747-3.315-3.788-6.812-7.753-10.222-11.62l-3.234-3.668c-4.847-5.5-12.413-7.394-19.273-4.823-6.879 2.577-11.351 8.995-11.392 16.35-.065 11.761.19 23.698.759 35.52-10.138 18.319-9.541 41.092 1.692 56.15zm12.292-50.412c.785-1.286 1.162-2.779 1.085-4.283-.632-12.263-.918-24.675-.85-36.893.009-1.555 1.05-2.176 1.67-2.409.282-.106.613-.186.968-.186.58 0 1.223.215 1.815.887l3.237 3.672c4.531 5.138 9.215 10.451 13.401 15.264 2.021 2.324 5.262 3.173 8.161 2.14 7.01-2.496 13.845-3.691 19.783-3.457.265.01.531.007.795-.011 6.297-.42 13.887.795 21.375 3.424 2.894 1.018 6.116.165 8.13-2.15 4.203-4.833 8.906-10.166 13.454-15.323l3.137-3.558c.954-1.084 2.041-.979 2.783-.701.62.232 1.661.854 1.67 2.409.067 12.224-.219 24.637-.851 36.896-.076 1.475.286 2.939 1.039 4.208 7.659 12.898 7.919 29.781.618 40.144-5.847 8.301-16.402 13.69-32.268 16.478-12.162 2.135-24.52 2.304-36.737.5-15.935-2.354-26.633-7.454-32.704-15.593-7.966-10.68-7.845-28.115.289-41.458z"/></g></g></g></svg>